<svg width="571" height="169" viewBox="0 0 571 169" fill="none" xmlns="http://www.w3.org/2000/svg">
<path d="M117.812 134V124.375L127.25 122.5V77.9375L117.312 76.0625V66.375H141.688L142.438 75.25C144.604 72.0417 147.354 69.5625 150.688 67.8125C154.021 66.0208 157.875 65.125 162.25 65.125C166.667 65.125 170.438 66.125 173.562 68.125C176.729 70.0833 179.125 73.0625 180.75 77.0625C182.833 73.3542 185.562 70.4375 188.938 68.3125C192.354 66.1875 196.354 65.125 200.938 65.125C207.688 65.125 213.021 67.4375 216.938 72.0625C220.854 76.6875 222.812 83.6875 222.812 93.0625V122.5L232.25 124.375V134H198.188V124.375L207.062 122.5V92.9375C207.062 87.2708 206.104 83.2917 204.188 81C202.271 78.7083 199.458 77.5625 195.75 77.5625C192.292 77.5625 189.438 78.6667 187.188 80.875C184.979 83.0417 183.542 85.8542 182.875 89.3125V122.5L191.438 124.375V134H158.625V124.375L167.188 122.5V92.9375C167.188 87.4792 166.208 83.5625 164.25 81.1875C162.292 78.7708 159.458 77.5625 155.75 77.5625C152.667 77.5625 150.062 78.1875 147.938 79.4375C145.854 80.6875 144.188 82.4583 142.938 84.75V122.5L151.812 124.375V134H117.812ZM261.938 135.312C255.062 135.312 249.708 133.542 245.875 130C242.042 126.458 240.125 121.583 240.125 115.375C240.125 109 242.708 103.833 247.875 99.875C253.083 95.9167 260.542 93.9375 270.25 93.9375H280.562V88.25C280.562 84.6667 279.479 81.8125 277.312 79.6875C275.188 77.5625 272.083 76.5 268 76.5C265.667 76.5 263.604 76.7917 261.812 77.375C260.021 77.9167 258.417 78.7083 257 79.75L255.625 88.875H244L243.875 72.1875C247.167 69.9792 250.854 68.25 254.938 67C259.062 65.75 263.625 65.125 268.625 65.125C277.208 65.125 283.958 67.1458 288.875 71.1875C293.833 75.2292 296.312 80.9792 296.312 88.4375V118.25C296.312 119.167 296.312 120.062 296.312 120.938C296.354 121.771 296.417 122.625 296.5 123.5L303.375 124.375V134H282.812C282.396 132.542 282 131.125 281.625 129.75C281.292 128.375 281.042 127 280.875 125.625C278.625 128.458 275.896 130.792 272.688 132.625C269.479 134.417 265.896 135.312 261.938 135.312ZM265.5 123.125C268.708 123.125 271.667 122.396 274.375 120.938C277.125 119.438 279.188 117.562 280.562 115.312V104H270.062C265.354 104 261.792 105.104 259.375 107.312C257 109.479 255.812 112.021 255.812 114.938C255.812 120.396 259.042 123.125 265.5 123.125ZM339.562 135.312C334.729 135.312 330.208 134.854 326 133.938C321.833 132.979 317.646 131.583 313.438 129.75L313.25 111.875H324.562L326.938 121.625C328.771 122.458 330.625 123.083 332.5 123.5C334.375 123.917 336.479 124.125 338.812 124.125C343.312 124.125 346.479 123.333 348.312 121.75C350.188 120.167 351.125 118.208 351.125 115.875C351.125 113.667 350.146 111.75 348.188 110.125C346.271 108.5 342.583 107.104 337.125 105.938C329 104.188 323.042 101.646 319.25 98.3125C315.458 94.9375 313.562 90.5625 313.562 85.1875C313.562 81.5208 314.542 78.1667 316.5 75.125C318.5 72.0833 321.417 69.6667 325.25 67.875C329.125 66.0833 333.875 65.1875 339.5 65.1875C344.625 65.1875 349.167 65.7292 353.125 66.8125C357.125 67.8542 360.521 69.25 363.312 71L363.75 88.1875H352.5L350.562 79.25C347.854 77.3333 344.396 76.375 340.188 76.375C336.729 76.375 334 77.1458 332 78.6875C330 80.1875 329 82.0833 329 84.375C329 86.375 329.792 88.1042 331.375 89.5625C332.958 91.0208 336.458 92.3542 341.875 93.5625C350.667 95.6042 356.958 98.2708 360.75 101.562C364.542 104.854 366.438 109.208 366.438 114.625C366.438 120.667 364.229 125.625 359.812 129.5C355.396 133.375 348.646 135.312 339.562 135.312ZM374.75 134V124.375L384.188 122.5V48.0625L374.188 46.1875V36.5H399.875V97.0625L420.75 77.1875L420.938 76.9375L413.875 76V66.375H446.5V76.0625L437.812 78.0625L419.938 94.8125L441.438 122.562L450.438 124.375V134H417.938V124.688L423.875 123.625L423.688 123.375L409.5 104.625L399.875 113.688V122.5L408.688 124.375V134H374.75ZM485.312 135.312C478.896 135.312 473.333 133.896 468.625 131.062C463.917 128.188 460.25 124.229 457.625 119.188C455.042 114.146 453.75 108.375 453.75 101.875V99.25C453.75 92.6667 455.021 86.8125 457.562 81.6875C460.146 76.5208 463.667 72.4792 468.125 69.5625C472.625 66.6042 477.771 65.125 483.562 65.125C492.688 65.125 499.625 67.8333 504.375 73.25C509.167 78.6667 511.562 86.1042 511.562 95.5625V104.562H470.062L469.938 104.875C470.188 110.208 471.729 114.604 474.562 118.062C477.396 121.479 481.438 123.188 486.688 123.188C490.354 123.188 493.688 122.688 496.688 121.688C499.688 120.688 502.479 119.271 505.062 117.438L509.938 127.312C507.271 129.604 503.875 131.521 499.75 133.062C495.667 134.562 490.854 135.312 485.312 135.312ZM470.312 93.5H496.5V91.875C496.5 87.4583 495.458 83.875 493.375 81.125C491.333 78.375 488.125 77 483.75 77C479.917 77 476.812 78.5417 474.438 81.625C472.104 84.7083 470.667 88.5625 470.125 93.1875L470.312 93.5ZM521.25 134V124.375L530.562 122.5V77.9375L520.688 76.0625V66.375H545.062L545.875 74.875L546 76.25C549.625 68.8333 554.875 65.125 561.75 65.125C564.333 65.125 566.646 65.4583 568.688 66.125L566.875 80.6875L558.062 80.1875C555.188 80.0208 552.812 80.5833 550.938 81.875C549.062 83.1667 547.521 84.9583 546.312 87.25V122.5L555.688 124.375V134H521.25Z" fill="white"/>
<circle cx="41" cy="98" r="35" stroke="url(#paint0_linear)" stroke-width="12"/>
<mask id="mask0" mask-type="alpha" maskUnits="userSpaceOnUse" x="0" y="57" width="82" height="82">
<circle cx="41" cy="98" r="41" fill="#C4C4C4"/>
</mask>
<g mask="url(#mask0)">
<circle cy="98" r="41" fill="url(#paint1_linear)"/>
</g>
<defs>
<linearGradient id="paint0_linear" x1="0" y1="57" x2="82" y2="139" gradientUnits="userSpaceOnUse">
<stop stop-color="#D4FC79"/>
<stop offset="1" stop-color="#96E6A1"/>
</linearGradient>
<linearGradient id="paint1_linear" x1="41" y1="139" x2="1.2219e-06" y2="57" gradientUnits="userSpaceOnUse">
<stop stop-color="#96E6A1"/>
<stop offset="1" stop-color="#D4FC79" stop-opacity="0"/>
</linearGradient>
</defs>
</svg>
