<svg width="1200" height="600" viewBox="0 0 1200 600" fill="none" xmlns="http://www.w3.org/2000/svg">
<rect width="1200" height="600" fill="white"/>
<path d="M431.812 349V339.375L441.25 337.5V292.938L431.312 291.062V281.375H455.688L456.438 290.25C458.604 287.042 461.354 284.562 464.688 282.812C468.021 281.021 471.875 280.125 476.25 280.125C480.667 280.125 484.438 281.125 487.562 283.125C490.729 285.083 493.125 288.062 494.75 292.062C496.833 288.354 499.562 285.438 502.938 283.312C506.354 281.188 510.354 280.125 514.938 280.125C521.688 280.125 527.021 282.438 530.938 287.062C534.854 291.688 536.812 298.688 536.812 308.062V337.5L546.25 339.375V349H512.188V339.375L521.062 337.5V307.938C521.062 302.271 520.104 298.292 518.188 296C516.271 293.708 513.458 292.562 509.75 292.562C506.292 292.562 503.438 293.667 501.188 295.875C498.979 298.042 497.542 300.854 496.875 304.312V337.5L505.438 339.375V349H472.625V339.375L481.188 337.5V307.938C481.188 302.479 480.208 298.562 478.25 296.188C476.292 293.771 473.458 292.562 469.75 292.562C466.667 292.562 464.062 293.188 461.938 294.438C459.854 295.688 458.188 297.458 456.938 299.75V337.5L465.812 339.375V349H431.812ZM575.938 350.312C569.062 350.312 563.708 348.542 559.875 345C556.042 341.458 554.125 336.583 554.125 330.375C554.125 324 556.708 318.833 561.875 314.875C567.083 310.917 574.542 308.938 584.25 308.938H594.562V303.25C594.562 299.667 593.479 296.812 591.312 294.688C589.188 292.562 586.083 291.5 582 291.5C579.667 291.5 577.604 291.792 575.812 292.375C574.021 292.917 572.417 293.708 571 294.75L569.625 303.875H558L557.875 287.188C561.167 284.979 564.854 283.25 568.938 282C573.062 280.75 577.625 280.125 582.625 280.125C591.208 280.125 597.958 282.146 602.875 286.188C607.833 290.229 610.312 295.979 610.312 303.438V333.25C610.312 334.167 610.312 335.062 610.312 335.938C610.354 336.771 610.417 337.625 610.5 338.5L617.375 339.375V349H596.812C596.396 347.542 596 346.125 595.625 344.75C595.292 343.375 595.042 342 594.875 340.625C592.625 343.458 589.896 345.792 586.688 347.625C583.479 349.417 579.896 350.312 575.938 350.312ZM579.5 338.125C582.708 338.125 585.667 337.396 588.375 335.938C591.125 334.438 593.188 332.562 594.562 330.312V319H584.062C579.354 319 575.792 320.104 573.375 322.312C571 324.479 569.812 327.021 569.812 329.938C569.812 335.396 573.042 338.125 579.5 338.125ZM653.562 350.312C648.729 350.312 644.208 349.854 640 348.938C635.833 347.979 631.646 346.583 627.438 344.75L627.25 326.875H638.562L640.938 336.625C642.771 337.458 644.625 338.083 646.5 338.5C648.375 338.917 650.479 339.125 652.812 339.125C657.312 339.125 660.479 338.333 662.312 336.75C664.188 335.167 665.125 333.208 665.125 330.875C665.125 328.667 664.146 326.75 662.188 325.125C660.271 323.5 656.583 322.104 651.125 320.938C643 319.188 637.042 316.646 633.25 313.312C629.458 309.938 627.562 305.562 627.562 300.188C627.562 296.521 628.542 293.167 630.5 290.125C632.5 287.083 635.417 284.667 639.25 282.875C643.125 281.083 647.875 280.188 653.5 280.188C658.625 280.188 663.167 280.729 667.125 281.812C671.125 282.854 674.521 284.25 677.312 286L677.75 303.188H666.5L664.562 294.25C661.854 292.333 658.396 291.375 654.188 291.375C650.729 291.375 648 292.146 646 293.688C644 295.188 643 297.083 643 299.375C643 301.375 643.792 303.104 645.375 304.562C646.958 306.021 650.458 307.354 655.875 308.562C664.667 310.604 670.958 313.271 674.75 316.562C678.542 319.854 680.438 324.208 680.438 329.625C680.438 335.667 678.229 340.625 673.812 344.5C669.396 348.375 662.646 350.312 653.562 350.312ZM688.75 349V339.375L698.188 337.5V263.062L688.188 261.188V251.5H713.875V312.062L734.75 292.188L734.938 291.938L727.875 291V281.375H760.5V291.062L751.812 293.062L733.938 309.812L755.438 337.562L764.438 339.375V349H731.938V339.688L737.875 338.625L737.688 338.375L723.5 319.625L713.875 328.688V337.5L722.688 339.375V349H688.75ZM799.312 350.312C792.896 350.312 787.333 348.896 782.625 346.062C777.917 343.188 774.25 339.229 771.625 334.188C769.042 329.146 767.75 323.375 767.75 316.875V314.25C767.75 307.667 769.021 301.812 771.562 296.688C774.146 291.521 777.667 287.479 782.125 284.562C786.625 281.604 791.771 280.125 797.562 280.125C806.688 280.125 813.625 282.833 818.375 288.25C823.167 293.667 825.562 301.104 825.562 310.562V319.562H784.062L783.938 319.875C784.188 325.208 785.729 329.604 788.562 333.062C791.396 336.479 795.438 338.188 800.688 338.188C804.354 338.188 807.688 337.688 810.688 336.688C813.688 335.688 816.479 334.271 819.062 332.438L823.938 342.312C821.271 344.604 817.875 346.521 813.75 348.062C809.667 349.562 804.854 350.312 799.312 350.312ZM784.312 308.5H810.5V306.875C810.5 302.458 809.458 298.875 807.375 296.125C805.333 293.375 802.125 292 797.75 292C793.917 292 790.812 293.542 788.438 296.625C786.104 299.708 784.667 303.562 784.125 308.188L784.312 308.5ZM835.25 349V339.375L844.562 337.5V292.938L834.688 291.062V281.375H859.062L859.875 289.875L860 291.25C863.625 283.833 868.875 280.125 875.75 280.125C878.333 280.125 880.646 280.458 882.688 281.125L880.875 295.688L872.062 295.188C869.188 295.021 866.812 295.583 864.938 296.875C863.062 298.167 861.521 299.958 860.312 302.25V337.5L869.688 339.375V349H835.25Z" fill="black"/>
<circle cx="355" cy="313" r="35" stroke="url(#paint0_linear)" stroke-width="12"/>
<mask id="mask0" mask-type="alpha" maskUnits="userSpaceOnUse" x="314" y="272" width="82" height="82">
<circle cx="355" cy="313" r="41" fill="#C4C4C4"/>
</mask>
<g mask="url(#mask0)">
<circle cx="314" cy="313" r="41" fill="url(#paint1_linear)"/>
</g>
<defs>
<linearGradient id="paint0_linear" x1="314" y1="272" x2="396" y2="354" gradientUnits="userSpaceOnUse">
<stop stop-color="#D4FC79"/>
<stop offset="1" stop-color="#96E6A1"/>
</linearGradient>
<linearGradient id="paint1_linear" x1="355" y1="354" x2="314" y2="272" gradientUnits="userSpaceOnUse">
<stop stop-color="#96E6A1"/>
<stop offset="1" stop-color="#D4FC79" stop-opacity="0"/>
</linearGradient>
</defs>
</svg>
